<svg width="304" height="78" viewBox="0 0 304 78" fill="none" xmlns="http://www.w3.org/2000/svg">
<path d="M97.0608 42.224C97.0608 43.8027 96.8688 45.552 96.4848 47.472H70.1168C70.4581 52.1653 73.4234 54.512 79.0128 54.512C80.7621 54.512 82.4261 54.2347 84.0048 53.68C85.6261 53.1253 87.0341 52.336 88.2288 51.312L92.3888 57.904C90.4688 59.44 88.2714 60.592 85.7968 61.36C83.3221 62.128 80.7194 62.512 77.9888 62.512C74.4474 62.512 71.3328 61.8933 68.6448 60.656C65.9994 59.376 63.9514 57.5627 62.5008 55.216C61.0928 52.8693 60.3888 50.16 60.3888 47.088C60.3888 43.2907 61.2421 39.8773 62.9488 36.848C64.6981 33.776 67.1088 31.3867 70.1808 29.68C73.2528 27.9307 76.7514 27.056 80.6768 27.056C84.0048 27.056 86.8848 27.6747 89.3168 28.912C91.7914 30.1493 93.6901 31.92 95.0128 34.224C96.3781 36.528 97.0608 39.1947 97.0608 42.224ZM80.2288 34.544C77.8821 34.544 75.8981 35.184 74.2768 36.464C72.6554 37.7013 71.5034 39.4293 70.8208 41.648H87.9088C87.9088 39.4293 87.2048 37.7013 85.7968 36.464C84.4314 35.184 82.5754 34.544 80.2288 34.544ZM137.248 42.224C137.248 43.8027 137.056 45.552 136.672 47.472H110.304C110.646 52.1653 113.611 54.512 119.2 54.512C120.95 54.512 122.614 54.2347 124.192 53.68C125.814 53.1253 127.222 52.336 128.416 51.312L132.576 57.904C130.656 59.44 128.459 60.592 125.984 61.36C123.51 62.128 120.907 62.512 118.176 62.512C114.635 62.512 111.52 61.8933 108.832 60.656C106.187 59.376 104.139 57.5627 102.688 55.216C101.28 52.8693 100.576 50.16 100.576 47.088C100.576 43.2907 101.43 39.8773 103.136 36.848C104.886 33.776 107.296 31.3867 110.368 29.68C113.44 27.9307 116.939 27.056 120.864 27.056C124.192 27.056 127.072 27.6747 129.504 28.912C131.979 30.1493 133.878 31.92 135.2 34.224C136.566 36.528 137.248 39.1947 137.248 42.224ZM120.416 34.544C118.07 34.544 116.086 35.184 114.464 36.464C112.843 37.7013 111.691 39.4293 111.008 41.648H128.096C128.096 39.4293 127.392 37.7013 125.984 36.464C124.619 35.184 122.763 34.544 120.416 34.544ZM166.236 27.056C168.924 27.056 171.398 27.6747 173.66 28.912C175.964 30.1493 177.777 31.9413 179.1 34.288C180.465 36.592 181.148 39.3227 181.148 42.48C181.148 46.2773 180.294 49.712 178.588 52.784C176.924 55.8133 174.641 58.2027 171.74 59.952C168.838 61.6587 165.617 62.512 162.076 62.512C159.388 62.512 157.062 62.0427 155.1 61.104C153.137 60.1653 151.622 58.7573 150.556 56.88L149.532 62H140.06L149.532 14.512H159.516L156.316 30.512C159.089 28.208 162.396 27.056 166.236 27.056ZM160.924 54.256C162.886 54.256 164.636 53.7867 166.172 52.848C167.708 51.8667 168.902 50.5227 169.756 48.816C170.609 47.1093 171.036 45.1467 171.036 42.928C171.036 40.5813 170.332 38.7253 168.924 37.36C167.558 35.9947 165.638 35.312 163.164 35.312C161.244 35.312 159.516 35.8027 157.98 36.784C156.444 37.7227 155.249 39.0453 154.396 40.752C153.542 42.4587 153.116 44.4213 153.116 46.64C153.116 48.9867 153.798 50.8427 155.164 52.208C156.529 53.5733 158.449 54.256 160.924 54.256ZM199.735 31.664C201.229 30.0427 203.021 28.8693 205.111 28.144C207.245 27.4187 209.741 27.056 212.599 27.056L210.807 36.272C209.613 36.1867 208.845 36.144 208.503 36.144C205.474 36.144 203.042 36.8907 201.207 38.384C199.415 39.8773 198.199 42.2027 197.559 45.36L194.231 62H184.247L191.095 27.568H200.567L199.735 31.664ZM229.231 62.512C225.775 62.512 222.725 61.872 220.079 60.592C217.477 59.312 215.45 57.52 213.999 55.216C212.591 52.8693 211.887 50.16 211.887 47.088C211.887 43.2907 212.783 39.8773 214.575 36.848C216.367 33.8187 218.842 31.4293 221.999 29.68C225.157 27.9307 228.719 27.056 232.687 27.056C236.186 27.056 239.237 27.696 241.839 28.976C244.442 30.256 246.447 32.0693 247.855 34.416C249.306 36.72 250.031 39.408 250.031 42.48C250.031 46.2773 249.135 49.6907 247.343 52.72C245.594 55.7493 243.119 58.1387 239.919 59.888C236.762 61.6373 233.199 62.512 229.231 62.512ZM229.871 54.256C231.791 54.256 233.519 53.7867 235.055 52.848C236.591 51.8667 237.786 50.5227 238.639 48.816C239.493 47.1093 239.919 45.1467 239.919 42.928C239.919 40.5813 239.237 38.7253 237.871 37.36C236.506 35.9947 234.586 35.312 232.111 35.312C230.149 35.312 228.399 35.8027 226.863 36.784C225.327 37.7227 224.133 39.0453 223.279 40.752C222.426 42.4587 221.999 44.4213 221.999 46.64C221.999 48.9867 222.682 50.8427 224.047 52.208C225.455 53.5733 227.397 54.256 229.871 54.256ZM264.531 24.9375L261.719 16.5938H270.125C270.875 16.4896 271.646 16.3333 272.438 16.125C273.25 15.8958 274.052 15.6354 274.844 15.3438C275.635 15.0312 276.406 14.7083 277.156 14.375C277.927 14.0208 278.656 13.6667 279.344 13.3125C280.927 12.5 282.479 11.6042 284 10.625L264.531 24.9375ZM288.312 49.4375C288.396 49.7083 288.646 49.8438 289.062 49.8438C289.396 49.8438 289.802 49.7708 290.281 49.625C290.76 49.4583 291.281 49.25 291.844 49C292.406 48.75 292.99 48.4583 293.594 48.125C294.219 47.7917 294.833 47.4583 295.438 47.125C296.812 46.3125 298.271 45.3958 299.812 44.375L278.5 59.9375L275.062 47.1562L263.75 61.9688H250.062L269.281 39.0312C268.656 37.1979 268.094 35.5521 267.594 34.0938C267.302 33.2188 267.062 32.5208 266.875 32C266.708 31.4792 266.552 31.0104 266.406 30.5938C266.26 30.1562 266.135 29.7917 266.031 29.5C265.927 29.2083 265.875 29.0521 265.875 29.0312C265.75 28.6771 265.417 28.5 264.875 28.5C264.521 28.5 264.115 28.5729 263.656 28.7188C263.198 28.8646 262.75 29.0312 262.312 29.2188C261.875 29.3854 261.479 29.5625 261.125 29.75C260.792 29.9375 260.552 30.0625 260.406 30.125L275.75 18.875L278.969 31.0938L289.969 16.5938H303.562L284.781 39.1562C285.427 41.0729 286.01 42.7812 286.531 44.2812C286.844 45.1771 287.094 45.8958 287.281 46.4375C287.469 46.9583 287.635 47.4375 287.781 47.875C287.927 48.3125 288.052 48.6875 288.156 49C288.26 49.2917 288.312 49.4375 288.312 49.4375ZM266.125 71.2812L289.844 53.8438L292.625 61.9688H283.969C283.74 61.9896 283.167 62.125 282.25 62.375C281.354 62.625 280.146 63.0833 278.625 63.75C277.125 64.4375 275.323 65.375 273.219 66.5625C271.115 67.7708 268.75 69.3438 266.125 71.2812Z" fill="black"/>
<path d="M24.1875 37.1875L2.5 53.1562C3.3125 52.4062 4.1875 51.4688 5.125 50.3438C6.0625 49.1979 6.95833 47.9688 7.8125 46.6562C8.6875 45.3229 9.47917 43.9583 10.1875 42.5625C10.8958 41.1458 11.4271 39.7917 11.7812 38.5L11.9375 37.75C12.7292 34.625 13.8958 31.7083 15.4375 29C16.9792 26.2708 18.8438 23.9062 21.0312 21.9062C23.2396 19.9062 25.7396 18.3333 28.5312 17.1875C31.3438 16.0417 34.4167 15.4688 37.75 15.4688C38.75 15.4688 39.7708 15.5208 40.8125 15.625C41.875 15.7083 42.9167 15.8646 43.9375 16.0938C44.9583 16.3229 45.9479 16.6354 46.9062 17.0312C47.8646 17.4271 48.75 17.9271 49.5625 18.5312L32.4062 31.125C32.6562 30.9167 32.9896 30.625 33.4062 30.25C33.8229 29.8542 34.25 29.4271 34.6875 28.9688C35.125 28.5104 35.5521 28.0417 35.9688 27.5625C36.3854 27.0625 36.7083 26.6042 36.9375 26.1875C37.1875 25.7708 37.3125 25.4167 37.3125 25.125C37.3333 24.8125 37.1667 24.6042 36.8125 24.5C35.9792 24.5 35.1979 24.5625 34.4688 24.6875C33.7604 24.7917 33.0833 24.9792 32.4375 25.25C31.7917 25.5 31.1667 25.8438 30.5625 26.2812C29.9792 26.6979 29.3958 27.2292 28.8125 27.875C26.8333 30.0417 25.2917 33.1458 24.1875 37.1875ZM32.2812 37.1875H49.9375L30.4062 51.5312C30.7188 51.2604 31.0938 50.9167 31.5312 50.5C31.9688 50.0833 32.4062 49.6562 32.8438 49.2188C33.2812 48.7604 33.6771 48.3021 34.0312 47.8438C34.4062 47.3854 34.6875 46.9792 34.875 46.625C35.0833 46.25 35.1562 45.9479 35.0938 45.7188C35.0521 45.4688 34.8229 45.3333 34.4062 45.3125H30.25L32.2812 37.1875ZM41.4375 26.7188L64.9062 9.46875C62.5312 11.4062 60.4375 13.2812 58.625 15.0938C57.5417 16.1354 56.6979 17.0208 56.0938 17.75C55.4896 18.4583 54.9479 19.1771 54.4688 19.9062C54.0104 20.6146 53.6562 21.3125 53.4062 22C53.1562 22.6667 53.1042 23.2604 53.25 23.7812C53.3542 24.1354 53.4167 24.4479 53.4375 24.7188C53.8542 26.5938 53.8854 28.7604 53.5312 31.2188L53.5 31.5H42.0312C42.1146 30.5208 42.1042 29.6146 42 28.7812C41.9167 27.9271 41.7292 27.2396 41.4375 26.7188ZM17.8125 60.7812C15.5208 59.6562 13.7812 58.1146 12.5938 56.1562C11.4062 54.1979 10.6875 51.9792 10.4375 49.5L23.5312 39.875L23.4062 40.4062C22.8646 42.6146 22.5729 44.5521 22.5312 46.2188C22.5104 47.8854 22.7604 49.2708 23.2812 50.375C23.7188 51.3333 24.3333 52.0521 25.125 52.5312C25.9167 52.9896 26.8021 53.2917 27.7812 53.4375L17.8125 60.7812ZM37.3125 48.6562L56.75 34.4062C56.625 34.5521 56.3646 34.8438 55.9688 35.2812C55.5938 35.7188 55.1667 36.2083 54.6875 36.75C54.2083 37.2917 53.7396 37.8438 53.2812 38.4062C52.8229 38.9479 52.4479 39.4167 52.1562 39.8125C51.9688 40.1458 51.7812 40.5208 51.5938 40.9375C51.4271 41.3333 51.2604 41.7083 51.0938 42.0625C50.9479 42.4167 50.8229 42.7396 50.7188 43.0312C50.6354 43.3021 50.5729 43.4792 50.5312 43.5625L47.375 56.25L47.3125 56.3125C46 57.4167 44.5104 58.3646 42.8438 59.1562C41.1979 59.9479 39.4688 60.6042 37.6562 61.125C35.8438 61.625 34.0104 61.9896 32.1562 62.2188C30.3229 62.4688 28.5625 62.5938 26.875 62.5938C26.0625 62.5938 25.2604 62.5625 24.4688 62.5C23.9896 62.5 23.4271 62.5729 22.7812 62.7188C22.1562 62.8646 21.4896 63.0521 20.7812 63.2812C20.0938 63.5312 19.3854 63.8125 18.6562 64.125C17.9271 64.4375 17.2292 64.75 16.5625 65.0625C14.9375 65.8125 13.2604 66.6562 11.5312 67.5938L30.625 53.5625C33.0625 53.4792 35.0312 52.8958 36.5312 51.8125L37.3125 48.6562Z" fill="black"/>
</svg>
