<svg width="63" height="59" viewBox="0 0 63 59" fill="none" xmlns="http://www.w3.org/2000/svg">
<path d="M22.1875 28.1875L0.5 44.1562C1.3125 43.4062 2.1875 42.4688 3.125 41.3438C4.0625 40.1979 4.95833 38.9688 5.8125 37.6562C6.6875 36.3229 7.47917 34.9583 8.1875 33.5625C8.89583 32.1458 9.42708 30.7917 9.78125 29.5L9.9375 28.75C10.7292 25.625 11.8958 22.7083 13.4375 20C14.9792 17.2708 16.8438 14.9062 19.0312 12.9062C21.2396 10.9062 23.7396 9.33333 26.5312 8.1875C29.3438 7.04167 32.4167 6.46875 35.75 6.46875C36.75 6.46875 37.7708 6.52083 38.8125 6.625C39.875 6.70833 40.9167 6.86458 41.9375 7.09375C42.9583 7.32292 43.9479 7.63542 44.9062 8.03125C45.8646 8.42708 46.75 8.92708 47.5625 9.53125L30.4062 22.125C30.6562 21.9167 30.9896 21.625 31.4062 21.25C31.8229 20.8542 32.25 20.4271 32.6875 19.9688C33.125 19.5104 33.5521 19.0417 33.9688 18.5625C34.3854 18.0625 34.7083 17.6042 34.9375 17.1875C35.1875 16.7708 35.3125 16.4167 35.3125 16.125C35.3333 15.8125 35.1667 15.6042 34.8125 15.5C33.9792 15.5 33.1979 15.5625 32.4688 15.6875C31.7604 15.7917 31.0833 15.9792 30.4375 16.25C29.7917 16.5 29.1667 16.8438 28.5625 17.2812C27.9792 17.6979 27.3958 18.2292 26.8125 18.875C24.8333 21.0417 23.2917 24.1458 22.1875 28.1875ZM30.2812 28.1875H47.9375L28.4062 42.5312C28.7188 42.2604 29.0938 41.9167 29.5312 41.5C29.9688 41.0833 30.4062 40.6562 30.8438 40.2188C31.2812 39.7604 31.6771 39.3021 32.0312 38.8438C32.4062 38.3854 32.6875 37.9792 32.875 37.625C33.0833 37.25 33.1562 36.9479 33.0938 36.7188C33.0521 36.4688 32.8229 36.3333 32.4062 36.3125H28.25L30.2812 28.1875ZM39.4375 17.7188L62.9062 0.46875C60.5312 2.40625 58.4375 4.28125 56.625 6.09375C55.5417 7.13542 54.6979 8.02083 54.0938 8.75C53.4896 9.45833 52.9479 10.1771 52.4688 10.9062C52.0104 11.6146 51.6562 12.3125 51.4062 13C51.1562 13.6667 51.1042 14.2604 51.25 14.7812C51.3542 15.1354 51.4167 15.4479 51.4375 15.7188C51.8542 17.5938 51.8854 19.7604 51.5312 22.2188L51.5 22.5H40.0312C40.1146 21.5208 40.1042 20.6146 40 19.7812C39.9167 18.9271 39.7292 18.2396 39.4375 17.7188ZM15.8125 51.7812C13.5208 50.6562 11.7812 49.1146 10.5938 47.1562C9.40625 45.1979 8.6875 42.9792 8.4375 40.5L21.5312 30.875L21.4062 31.4062C20.8646 33.6146 20.5729 35.5521 20.5312 37.2188C20.5104 38.8854 20.7604 40.2708 21.2812 41.375C21.7188 42.3333 22.3333 43.0521 23.125 43.5312C23.9167 43.9896 24.8021 44.2917 25.7812 44.4375L15.8125 51.7812ZM35.3125 39.6562L54.75 25.4062C54.625 25.5521 54.3646 25.8438 53.9688 26.2812C53.5938 26.7188 53.1667 27.2083 52.6875 27.75C52.2083 28.2917 51.7396 28.8438 51.2812 29.4062C50.8229 29.9479 50.4479 30.4167 50.1562 30.8125C49.9688 31.1458 49.7812 31.5208 49.5938 31.9375C49.4271 32.3333 49.2604 32.7083 49.0938 33.0625C48.9479 33.4167 48.8229 33.7396 48.7188 34.0312C48.6354 34.3021 48.5729 34.4792 48.5312 34.5625L45.375 47.25L45.3125 47.3125C44 48.4167 42.5104 49.3646 40.8438 50.1562C39.1979 50.9479 37.4688 51.6042 35.6562 52.125C33.8438 52.625 32.0104 52.9896 30.1562 53.2188C28.3229 53.4688 26.5625 53.5938 24.875 53.5938C24.0625 53.5938 23.2604 53.5625 22.4688 53.5C21.9896 53.5 21.4271 53.5729 20.7812 53.7188C20.1562 53.8646 19.4896 54.0521 18.7812 54.2812C18.0938 54.5312 17.3854 54.8125 16.6562 55.125C15.9271 55.4375 15.2292 55.75 14.5625 56.0625C12.9375 56.8125 11.2604 57.6562 9.53125 58.5938L28.625 44.5625C31.0625 44.4792 33.0312 43.8958 34.5312 42.8125L35.3125 39.6562Z" fill="black"/>
</svg>
