<svg version="1" xmlns="http://www.w3.org/2000/svg" width="1344" height="1344" viewBox="0 0 1008.000000 1008.000000"><path d="M987.4 52.8c-8.7 6.5-23.1 17-31.9 23.5-20.1 14.7-51.9 38-69.6 51.1-7.5 5.6-67.9 49.9-134.3 98.6-100.3 73.6-120.6 88.8-120.2 90.5.2 1.1 1.5 4.9 2.9 8.5 4.4 11.5 6.1 24.4 6.2 47l.1 20.5h183.9l1.2-8.5c5.6-39.9 4-77.3-5.2-116.5-1.2-4.8-1.5-8.9-1-12.9 2-18.2 18.8-48.6 43-78.1 12.5-15.1 62.4-65.3 87-87.4 9.4-8.4 25.2-22.3 35.2-30.8 16.6-14 20.2-17.3 19-17.3-.2 0-7.6 5.3-16.3 11.8zM544 135.6c-52.1 4-95.9 15.1-138.5 35.1-105.1 49.4-183.2 139.4-229.6 264.4-6.3 17.2-15.6 48.1-18.9 62.9-8.3 37.8-31.8 86.6-67.5 140.5-22.4 33.8-43.3 60.1-66.9 84.3-7.7 7.8-13.7 14.4-13.4 14.7.4.4 37.6-26.7 99.3-72.3 7.2-5.3 16.2-11.9 20-14.8 6.7-4.9 66.7-49 176.4-129.7 27.7-20.4 50.4-37.6 50.6-38.1 3.2-11.2 14.9-46.2 18.7-55.6 24.2-60.5 59.6-106.4 98.4-127.6 20.5-11.1 50-18.3 75.5-18.4 9.3 0 11 .3 13.3 2.1 2.2 1.7 2.6 2.8 2.6 6.9 0 14.2-19 39.5-58.6 77.9-9.8 9.6-16.6 16.7-14.9 15.6 1.6-1 21.6-15.6 44.5-32.4 22.8-16.7 51.4-37.7 63.5-46.6 23.1-16.9 97-71.2 109-80 3.9-2.8 12.8-9.4 19.9-14.6 24.5-18 32.9-24.4 33.3-25.4.9-2.8-27-18.5-46.7-26.3-38.2-15.2-78.5-21.9-136-22.6-15.7-.2-31-.2-34 0zM862.5 447.4c-9.5 7.2-83.9 61.8-158.6 116.5-12.4 9.2-32.5 23.8-44.5 32.7-30.2 22.1-77.2 56.5-87 63.6l-8 5.9-5.8 23.7c-3.2 13-6.1 24.6-6.6 25.7-2 5.2-30.7 18.5-49.3 23-10.7 2.6-31.9 5.5-39.7 5.5-5.2 0 13.3-13.2-155 110.4-55.3 40.7-112.8 82.9-127.8 94-15.1 11-27 20.2-26.5 20.3.5.2 6.9-2.9 14.3-6.9 16.6-8.8 58.5-29.3 78-38.1 39.6-17.8 68.4-28.1 90.4-32.2 13.2-2.4 14.2-2.5 46.3-1.8 43.1.8 62.7-.5 110.8-7.3 59.5-8.3 112.7-24.3 162.9-48.9 25.8-12.6 52.3-29.4 65.8-41.7l4.7-4.3 12.6-51c39-157.8 39.5-159.8 48.6-179.9 9.7-21.7 13.7-29.4 17.8-35.1 7.7-10.4 29.8-36.4 67-78.8 5.3-5.9 1.5-4.2-10.4 4.7zM484 484.2c-1.4 3-32 125.6-32 128 0 1.7 1.6 1.8 35.9 1.8 34.7 0 35.9.1 38.5 2.1 10 7.8-10.7 38.2-53.8 78.9-9.6 9-17.3 16.6-17.1 16.8.4.4 33.4-23.8 207-151.3 33.6-24.7 70.8-52 82.7-60.8 12-8.7 21.5-16.3 21.2-16.8-.3-.5-59-.9-141-.9H485l-1 2.2zM321 542.5c-12.4 9.1-30.1 22.1-39.5 29-9.3 6.9-46.2 34-82 60.3l-65 47.8.3 3.9c1.3 17 9.1 48.5 16.7 67.7 11.8 29.7 28.1 54.6 47.8 73.1 13.4 12.6 32.2 25.9 47.6 33.6l6.2 3.2 6.2-4.6c19.5-14.2 28.9-21.1 65.2-47.9 22-16.3 50.9-37.6 64.1-47.3 13.3-9.8 24-18.1 23.8-18.4-.2-.4-3.3-1.2-6.9-1.8-8.8-1.6-22.4-6.4-31.5-11.3-37.7-20.1-52.2-71.2-41-144.9 1.6-10.8 10-51.9 11.6-57.2.3-.9.2-1.7-.3-1.7-.4 0-10.9 7.4-23.3 16.5z"/></svg>